<?xml version="1.0" encoding="utf-8"?>
<!-- Generator: Adobe Illustrator 19.0.0, SVG Export Plug-In . SVG Version: 6.00 Build 0)  -->
<svg version="1.1" id="Layer_1" xmlns="http://www.w3.org/2000/svg" xmlns:xlink="http://www.w3.org/1999/xlink" x="0px" y="0px"
	 viewBox="0 0 372.1 148.9" style="enable-background:new 0 0 372.1 148.9;" xml:space="preserve">
<style type="text/css">
	.st0{fill:#EA514A;}
	.st1{fill:#FFFFFF;}
</style>
<path id="XMLID_56_" class="st0" d="M351.3,12.5c-1.7-6.6-7-12.5-14.2-12.5C317.9,0,50.9,0,34.9,0c-7.1,0-12.4,5.9-14.2,12.5
	C14.6,32.8,0,52.7,0,74.4c0,21.7,14.6,41.7,20.7,61.9c1.7,6.6,7,12.5,14.2,12.5c10,0,279.5,0,302.3,0c7.1,0,12.4-5.9,14.2-12.5
	c6.2-20.2,20.7-40.2,20.7-61.9C372.1,52.7,357.5,32.8,351.3,12.5z"/>
<g id="XMLID_55_">
	<path id="XMLID_53_" class="st1" d="M81.7,44.4H45.5c-0.7,0-1.3,0.3-1.7,0.7c-0.5,0.5-0.7,1.1-0.7,1.8V102c0,0.7,0.3,1.3,0.7,1.7
		c0.5,0.5,1.1,0.7,1.7,0.7h7.3c0.7,0,1.3-0.3,1.8-0.7c0.5-0.5,0.7-1.1,0.7-1.7V79.2h22.8c0.7,0,1.3-0.3,1.8-0.7
		c0.5-0.5,0.7-1.1,0.7-1.7v-6.2c0-0.7-0.3-1.3-0.7-1.7c-0.5-0.5-1.1-0.7-1.8-0.7H55.4V55.5h26.4c0.7,0,1.3-0.3,1.8-0.7
		c0.5-0.5,0.7-1.1,0.7-1.7v-6.2c0-0.7-0.3-1.3-0.7-1.8C83,44.7,82.4,44.4,81.7,44.4"/>
	<path id="XMLID_52_" class="st1" d="M140.2,44.4h-8.3c-0.9,0-1.7,0.4-2.1,1.2l-14,22.9l-14.4-22.9c-0.5-0.7-1.2-1.2-2.1-1.2h-8.7
		c-0.9,0-1.7,0.5-2.2,1.3c-0.4,0.8-0.4,1.8,0.1,2.5l20.9,32V102c0,0.7,0.3,1.3,0.7,1.7c0.5,0.5,1.1,0.7,1.7,0.7h7.3
		c0.7,0,1.3-0.3,1.8-0.7c0.5-0.5,0.7-1.1,0.7-1.7V80.2l20.7-32c0.5-0.8,0.5-1.7,0.1-2.5C141.9,44.9,141.1,44.4,140.2,44.4"/>
	<path id="XMLID_51_" class="st1" d="M193.1,44.4h-6.9c-0.7,0-1.3,0.3-1.8,0.7c-0.5,0.5-0.7,1.1-0.7,1.8v36.6L159,45.5
		c-0.5-0.7-1.2-1.1-2.1-1.1h-7.8c-0.7,0-1.3,0.3-1.8,0.7c-0.5,0.5-0.7,1.1-0.7,1.8V102c0,0.7,0.3,1.3,0.7,1.7
		c0.5,0.5,1.1,0.7,1.8,0.7h6.9c0.7,0,1.3-0.3,1.8-0.7c0.5-0.5,0.7-1.1,0.7-1.7V65.9l24.4,37.5c0.5,0.7,1.2,1.1,2.1,1.1h8
		c0.6,0,1.3-0.3,1.7-0.7c0.5-0.5,0.7-1.1,0.7-1.7V46.9c0-0.7-0.3-1.3-0.7-1.8C194.4,44.7,193.7,44.4,193.1,44.4"/>
	<path id="XMLID_48_" class="st1" d="M246,51.6c-2.6-2.4-5.7-4.2-9.3-5.4c-3.6-1.2-7.6-1.7-12-1.7h-18.9c-0.7,0-1.3,0.3-1.8,0.7
		c-0.5,0.5-0.7,1.1-0.7,1.8V102c0,0.7,0.3,1.3,0.7,1.7c0.5,0.5,1.1,0.7,1.8,0.7h18.9c4.8,0,9.1-0.7,12.8-2.1
		c3.7-1.4,6.8-3.5,9.2-6.3c2.4-2.8,4.2-6.1,5.3-10c1.1-3.8,1.6-8.2,1.6-13c0-4.6-0.6-8.8-1.9-12.4C250.5,57.1,248.6,54,246,51.6
		 M240.4,82.1c-0.6,2.2-1.4,4-2.3,5.3c-0.9,1.4-1.9,2.4-3,3.1h0c-1.2,0.8-2.4,1.4-3.5,1.8l0,0c-1.2,0.4-2.4,0.7-3.4,0.8
		c-1.2,0.1-2.1,0.2-2.8,0.2h-9.7V55.5h9.9c3.2,0,5.7,0.5,7.6,1.2h0c2,0.8,3.5,1.9,4.7,3.4l0,0c1.2,1.5,2.1,3.4,2.7,5.7
		c0.6,2.4,0.9,5.1,0.9,8.2C241.4,77.4,241,80,240.4,82.1z"/>
	<path id="XMLID_47_" class="st1" d="M269.8,44.4h-7.3c-0.7,0-1.3,0.3-1.7,0.7c-0.5,0.5-0.7,1.1-0.7,1.8V102c0,0.7,0.3,1.3,0.7,1.7
		c0.5,0.5,1.1,0.7,1.7,0.7h7.3c0.7,0,1.3-0.3,1.8-0.7c0.5-0.5,0.7-1.1,0.7-1.7V46.9c0-0.7-0.3-1.3-0.7-1.8
		C271.1,44.7,270.5,44.4,269.8,44.4"/>
	<path id="XMLID_43_" class="st1" d="M336.4,74.4c0-4-0.6-7.9-1.8-11.6c-1.2-3.8-3-7.2-5.4-10.1c-2.4-2.9-5.5-5.3-9.1-7.1
		c-3.6-1.8-7.9-2.6-12.6-2.6c-4.7,0-9,0.9-12.6,2.6c-3.6,1.8-6.7,4.1-9.1,7.1c-2.4,2.9-4.2,6.3-5.4,10.1c-1.2,3.7-1.8,7.6-1.8,11.6
		c0,4,0.6,7.9,1.8,11.6c1.2,3.8,3,7.1,5.4,10.1c2.4,3,5.5,5.3,9.1,7c3.6,1.7,7.9,2.6,12.6,2.6c4.7,0,9-0.9,12.6-2.6
		c0.1-0.1,0.2-0.1,0.3-0.2l4.6,4.4c1,0.9,2.6,0.9,3.5-0.1l4.2-4.4c0.9-1,0.9-2.6-0.1-3.5l-3.5-3.3c2.4-2.9,4.2-6.3,5.4-10
		C335.8,82.3,336.4,78.4,336.4,74.4 M316.8,84.1c-1-0.9-2.6-0.9-3.5,0.1l-4.2,4.4c-0.9,1-0.9,2.6,0.1,3.5l2.3,2.2
		c-1.2,0.2-2.5,0.4-3.8,0.4c-2.9,0-5.4-0.6-7.5-1.7c-2.1-1.1-3.8-2.6-5.1-4.5c-1.4-1.9-2.4-4.1-3-6.5c-0.7-2.5-1-5-1-7.6
		c0-2.5,0.3-5.1,1-7.6c0.6-2.4,1.6-4.6,3-6.5c1.3-1.8,3-3.4,5.1-4.5c2-1.1,4.5-1.7,7.5-1.7c2.9,0,5.4,0.6,7.5,1.7
		c2.1,1.1,3.8,2.6,5.1,4.5c1.4,1.9,2.4,4.1,3,6.5c0.7,2.5,1,5,1,7.6c0,2.6-0.3,5.1-1,7.6c-0.6,2.1-1.4,4-2.5,5.7L316.8,84.1z"/>
</g>
</svg>
